NotoSerifTamilSlanted-Black.ufo
<glyph name="zero" format="2">
  <advance width="569"/>
  <unicode hex="0030"/>
  <outline>
    <contour>
      <point x="256" y="-11" type="curve" smooth="yes"/>
      <point x="489" y="-11"/>
      <point x="591" y="294"/>
      <point x="591" y="496" type="curve" smooth="yes"/>
      <point x="591" y="655"/>
      <point x="497" y="725"/>
      <point x="377" y="725" type="curve" smooth="yes"/>
      <point x="143" y="725"/>
      <point x="37" y="438"/>
      <point x="37" y="231" type="curve" smooth="yes"/>
      <point x="37" y="73"/>
      <point x="125" y="-11"/>
    </contour>
    <contour>
      <point x="260" y="67" type="curve" smooth="yes"/>
      <point x="226" y="67"/>
      <point x="203" y="105"/>
      <point x="203" y="178" type="curve" smooth="yes"/>
      <point x="203" y="344"/>
      <point x="281" y="648"/>
      <point x="375" y="648" type="curve" smooth="yes"/>
      <point x="412" y="648"/>
      <point x="433" y="610"/>
      <point x="433" y="539" type="curve" smooth="yes"/>
      <point x="433" y="377"/>
      <point x="360" y="67"/>
    </contour>
  </outline>
</glyph>
<glyph name="three" format="2">
  <advance width="569"/>
  <unicode hex="0033"/>
  <outline>
    <contour>
      <point x="226" y="-10" type="curve" smooth="yes"/>
      <point x="369" y="-10"/>
      <point x="542" y="48"/>
      <point x="542" y="225" type="curve" smooth="yes"/>
      <point x="542" y="311"/>
      <point x="484" y="359"/>
      <point x="392" y="369" type="curve"/>
      <point x="526" y="393"/>
      <point x="593" y="488"/>
      <point x="593" y="581" type="curve" smooth="yes"/>
      <point x="593" y="672"/>
      <point x="505" y="724"/>
      <point x="373" y="724" type="curve" smooth="yes"/>
      <point x="226" y="724"/>
      <point x="109" y="652"/>
      <point x="109" y="570" type="curve" smooth="yes"/>
      <point x="109" y="521"/>
      <point x="171" y="506"/>
      <point x="251" y="506" type="curve"/>
      <point x="263" y="585"/>
      <point x="289" y="655"/>
      <point x="348" y="655" type="curve" smooth="yes"/>
      <point x="394" y="655"/>
      <point x="408" y="620"/>
      <point x="408" y="573" type="curve" smooth="yes"/>
      <point x="408" y="472"/>
      <point x="325" y="404"/>
      <point x="207" y="404" type="curve" smooth="yes"/>
      <point x="175" y="404" type="line"/>
      <point x="165" y="334" type="line"/>
      <point x="208" y="334" type="line" smooth="yes"/>
      <point x="303" y="334"/>
      <point x="355" y="293"/>
      <point x="355" y="221" type="curve" smooth="yes"/>
      <point x="355" y="123"/>
      <point x="294" y="73"/>
      <point x="243" y="73" type="curve" smooth="yes"/>
      <point x="174" y="73"/>
      <point x="137" y="125"/>
      <point x="137" y="216" type="curve"/>
      <point x="48" y="216"/>
      <point x="2" y="178"/>
      <point x="2" y="123" type="curve" smooth="yes"/>
      <point x="2" y="66"/>
      <point x="60" y="-10"/>
    </contour>
  </outline>
</glyph>
<glyph name="five" format="2">
  <advance width="569"/>
  <unicode hex="0035"/>
  <outline>
    <contour>
      <point x="218" y="-10" type="curve" smooth="yes"/>
      <point x="420" y="-10"/>
      <point x="535" y="102"/>
      <point x="535" y="250" type="curve" smooth="yes"/>
      <point x="535" y="372"/>
      <point x="440" y="439"/>
      <point x="295" y="439" type="curve" smooth="yes"/>
      <point x="243" y="439"/>
      <point x="211" y="431"/>
      <point x="185" y="423" type="curve"/>
      <point x="233" y="584" type="line"/>
      <point x="445" y="584" type="line" smooth="yes"/>
      <point x="485" y="584"/>
      <point x="496" y="574"/>
      <point x="496" y="558" type="curve" smooth="yes"/>
      <point x="496" y="550"/>
      <point x="495" y="526"/>
      <point x="493" y="509" type="curve"/>
      <point x="568" y="509" type="line"/>
      <point x="599" y="714" type="line"/>
      <point x="188" y="714" type="line"/>
      <point x="90" y="374" type="line"/>
      <point x="138" y="343" type="line"/>
      <point x="162" y="354"/>
      <point x="191" y="365"/>
      <point x="237" y="365" type="curve" smooth="yes"/>
      <point x="303" y="365"/>
      <point x="352" y="325"/>
      <point x="352" y="243" type="curve" smooth="yes"/>
      <point x="352" y="128"/>
      <point x="304" y="71"/>
      <point x="228" y="71" type="curve" smooth="yes"/>
      <point x="139" y="71"/>
      <point x="120" y="151"/>
      <point x="119" y="213" type="curve"/>
      <point x="46" y="213"/>
      <point x="13" y="169"/>
      <point x="13" y="120" type="curve" smooth="yes"/>
      <point x="13" y="49"/>
      <point x="72" y="-10"/>
    </contour>
  </outline>
</glyph>
<glyph name="eight" format="2">
  <advance width="569"/>
  <unicode hex="0038"/>
  <outline>
    <contour>
      <point x="275" y="-10" type="curve" smooth="yes"/>
      <point x="438" y="-10"/>
      <point x="550" y="56"/>
      <point x="550" y="202" type="curve" smooth="yes"/>
      <point x="550" y="283"/>
      <point x="498" y="340"/>
      <point x="429" y="380" type="curve"/>
      <point x="527" y="428"/>
      <point x="597" y="477"/>
      <point x="597" y="578" type="curve" smooth="yes"/>
      <point x="597" y="662"/>
      <point x="517" y="724"/>
      <point x="385" y="724" type="curve" smooth="yes"/>
      <point x="194" y="724"/>
      <point x="122" y="635"/>
      <point x="122" y="541" type="curve" smooth="yes"/>
      <point x="122" y="464"/>
      <point x="162" y="403"/>
      <point x="216" y="360" type="curve"/>
      <point x="107" y="317"/>
      <point x="20" y="274"/>
      <point x="20" y="162" type="curve" smooth="yes"/>
      <point x="20" y="62"/>
      <point x="124" y="-10"/>
    </contour>
    <contour>
      <point x="275" y="55" type="curve" smooth="yes"/>
      <point x="218" y="55"/>
      <point x="184" y="93"/>
      <point x="184" y="157" type="curve" smooth="yes"/>
      <point x="184" y="232"/>
      <point x="222" y="284"/>
      <point x="287" y="313" type="curve"/>
      <point x="350" y="274"/>
      <point x="384" y="231"/>
      <point x="384" y="171" type="curve" smooth="yes"/>
      <point x="384" y="94"/>
      <point x="334" y="55"/>
    </contour>
    <contour>
      <point x="361" y="421" type="curve"/>
      <point x="316" y="452"/>
      <point x="291" y="497"/>
      <point x="291" y="545" type="curve" smooth="yes"/>
      <point x="291" y="616"/>
      <point x="330" y="660"/>
      <point x="378" y="660" type="curve" smooth="yes"/>
      <point x="420" y="660"/>
      <point x="444" y="621"/>
      <point x="444" y="571" type="curve" smooth="yes"/>
      <point x="444" y="511"/>
      <point x="421" y="458"/>
    </contour>
  </outline>
</glyph>
<glyph name="greater" format="2">
  <advance width="569"/>
  <unicode hex="003E"/>
  <outline>
    <contour>
      <point x="60" y="90" type="line"/>
      <point x="509" y="335" type="line"/>
      <point x="509" y="380" type="line"/>
      <point x="60" y="626" type="line"/>
      <point x="60" y="539" type="line"/>
      <point x="392" y="357" type="line"/>
      <point x="60" y="177" type="line"/>
    </contour>
  </outline>
</glyph>
<glyph name="bracketright" format="2">
  <advance width="454"/>
  <unicode hex="005D"/>
  <outline>
    <contour>
      <point x="-58" y="-128" type="line"/>
      <point x="258" y="-128" type="line"/>
      <point x="447" y="760" type="line"/>
      <point x="130" y="760" type="line"/>
      <point x="118" y="699" type="line"/>
      <point x="161" y="699" type="line" smooth="yes"/>
      <point x="196" y="699"/>
      <point x="227" y="693"/>
      <point x="227" y="647" type="curve" smooth="yes"/>
      <point x="227" y="639"/>
      <point x="227" y="635"/>
      <point x="225" y="624" type="curve" smooth="yes"/>
      <point x="95" y="5" type="line" smooth="yes"/>
      <point x="82" y="-58"/>
      <point x="42" y="-67"/>
      <point x="-2" y="-67" type="curve" smooth="yes"/>
      <point x="-45" y="-67" type="line"/>
    </contour>
  </outline>
</glyph>
<glyph name="braceright" format="2">
  <advance width="452"/>
  <unicode hex="007D"/>
  <outline>
    <contour>
      <point x="-57" y="-121" type="line"/>
      <point x="59" y="-121" type="line" smooth="yes"/>
      <point x="188" y="-121"/>
      <point x="258" y="-82"/>
      <point x="281" y="26" type="curve" smooth="yes"/>
      <point x="317" y="197" type="line" smooth="yes"/>
      <point x="332" y="267"/>
      <point x="384" y="279"/>
      <point x="450" y="280" type="curve"/>
      <point x="466" y="355" type="line"/>
      <point x="410" y="357"/>
      <point x="367" y="366"/>
      <point x="367" y="418" type="curve" smooth="yes"/>
      <point x="367" y="424"/>
      <point x="367" y="433"/>
      <point x="369" y="441" type="curve" smooth="yes"/>
      <point x="394" y="556" type="line" smooth="yes"/>
      <point x="407" y="616"/>
      <point x="407" y="636"/>
      <point x="407" y="647" type="curve" smooth="yes"/>
      <point x="407" y="717"/>
      <point x="354" y="762"/>
      <point x="247" y="762" type="curve" smooth="yes"/>
      <point x="130" y="762" type="line"/>
      <point x="116" y="701" type="line"/>
      <point x="162" y="701" type="line" smooth="yes"/>
      <point x="200" y="701"/>
      <point x="211" y="685"/>
      <point x="211" y="656" type="curve" smooth="yes"/>
      <point x="211" y="642"/>
      <point x="210" y="626"/>
      <point x="206" y="609" type="curve" smooth="yes"/>
      <point x="169" y="438" type="line" smooth="yes"/>
      <point x="167" y="428"/>
      <point x="167" y="420"/>
      <point x="167" y="412" type="curve" smooth="yes"/>
      <point x="167" y="371"/>
      <point x="193" y="342"/>
      <point x="254" y="322" type="curve"/>
      <point x="251" y="311" type="line"/>
      <point x="168" y="289"/>
      <point x="131" y="254"/>
      <point x="119" y="198" type="curve" smooth="yes"/>
      <point x="82" y="30" type="line" smooth="yes"/>
      <point x="69" y="-29"/>
      <point x="57" y="-61"/>
      <point x="1" y="-61" type="curve" smooth="yes"/>
      <point x="-44" y="-61" type="line"/>
    </contour>
  </outline>
</glyph>
<glyph name="multiply" format="2">
  <advance width="569"/>
  <unicode hex="00D7"/>
  <outline>
    <contour>
      <point x="141" y="157" type="line"/>
      <point x="284" y="302" type="line"/>
      <point x="428" y="157" type="line"/>
      <point x="484" y="213" type="line"/>
      <point x="340" y="358" type="line"/>
      <point x="484" y="503" type="line"/>
      <point x="427" y="560" type="line"/>
      <point x="284" y="416" type="line"/>
      <point x="141" y="559" type="line"/>
      <point x="83" y="503" type="line"/>
      <point x="226" y="359" type="line"/>
      <point x="83" y="214" type="line"/>
    </contour>
  </outline>
</glyph>
<glyph name="anudatta-deva" format="2">
  <unicode hex="0952"/>
  <anchor x="-59" y="0" name="_bottom"/>
  <outline>
    <contour>
      <point x="-378" y="-635" type="line"/>
      <point x="-10" y="-635" type="line"/>
      <point x="12" y="-536" type="line"/>
      <point x="-357" y="-536" type="line"/>
    </contour>
  </outline>
</glyph>
<glyph name="e-tamil" format="2">
  <advance width="1050"/>
  <unicode hex="0B8E"/>
  <note>
uni0B8E
</note>
  <anchor x="485" y="0" name="bottom"/>
  <anchor x="485" y="0" name="nukta"/>
  <anchor x="615" y="584" name="top"/>
  <anchor x="612" y="584" name="vedic"/>
  <outline>
    <contour>
      <point x="281" y="-5" type="curve" smooth="yes"/>
      <point x="408" y="-5"/>
      <point x="517" y="67"/>
      <point x="517" y="202" type="curve" smooth="yes"/>
      <point x="517" y="293"/>
      <point x="456" y="354"/>
      <point x="352" y="354" type="curve" smooth="yes"/>
      <point x="219" y="354"/>
      <point x="130" y="234"/>
      <point x="115" y="123" type="curve"/>
      <point x="163" y="92" type="line"/>
      <point x="178" y="169"/>
      <point x="214" y="230"/>
      <point x="271" y="230" type="curve" smooth="yes"/>
      <point x="307" y="230"/>
      <point x="328" y="203"/>
      <point x="328" y="170" type="curve" smooth="yes"/>
      <point x="328" y="121"/>
      <point x="298" y="88"/>
      <point x="240" y="88" type="curve" smooth="yes"/>
      <point x="188" y="88"/>
      <point x="125" y="145"/>
      <point x="125" y="249" type="curve" smooth="yes"/>
      <point x="125" y="419"/>
      <point x="251" y="509"/>
      <point x="487" y="509" type="curve" smooth="yes"/>
      <point x="728" y="509" type="line"/>
      <point x="620" y="0" type="line"/>
      <point x="844" y="0" type="line"/>
      <point x="952" y="509" type="line"/>
      <point x="1083" y="509" type="line"/>
      <point x="1099" y="584" type="line"/>
      <point x="486" y="584" type="line" smooth="yes"/>
      <point x="201" y="584"/>
      <point x="44" y="457"/>
      <point x="44" y="237" type="curve" smooth="yes"/>
      <point x="44" y="97"/>
      <point x="144" y="-5"/>
    </contour>
  </outline>
</glyph>
<glyph name="ca-tamil" format="2">
  <advance width="812"/>
  <unicode hex="0B9A"/>
  <note>
uni0B9A
</note>
  <anchor x="360" y="0" name="bottom"/>
  <anchor x="684" y="584" name="imatra"/>
  <anchor x="364" y="0" name="nukta"/>
  <anchor x="552" y="584" name="top"/>
  <anchor x="525" y="584" name="vedic"/>
  <outline>
    <contour>
      <point x="283" y="-4" type="curve" smooth="yes"/>
      <point x="471" y="-4"/>
      <point x="551" y="83"/>
      <point x="586" y="227" type="curve" smooth="yes"/>
      <point x="597" y="272" type="line"/>
      <point x="750" y="272" type="line"/>
      <point x="764" y="348" type="line"/>
      <point x="613" y="348" type="line"/>
      <point x="647" y="508" type="line"/>
      <point x="801" y="508" type="line"/>
      <point x="817" y="584" type="line"/>
      <point x="230" y="584" type="line"/>
      <point x="172" y="310" type="line"/>
      <point x="255" y="310" type="line"/>
      <point x="297" y="508" type="line"/>
      <point x="432" y="508" type="line"/>
      <point x="398" y="348" type="line"/>
      <point x="262" y="348" type="line" smooth="yes"/>
      <point x="134" y="348"/>
      <point x="40" y="280"/>
      <point x="40" y="164" type="curve" smooth="yes"/>
      <point x="40" y="68"/>
      <point x="117" y="-4"/>
    </contour>
    <contour>
      <point x="227" y="83" type="curve" smooth="yes"/>
      <point x="167" y="83"/>
      <point x="119" y="115"/>
      <point x="119" y="174" type="curve" smooth="yes"/>
      <point x="119" y="239"/>
      <point x="166" y="272"/>
      <point x="254" y="272" type="curve" smooth="yes"/>
      <point x="382" y="272" type="line"/>
      <point x="372" y="226" type="line" smooth="yes"/>
      <point x="350" y="126"/>
      <point x="311" y="83"/>
    </contour>
  </outline>
</glyph>
<glyph name="ta-tamil" format="2">
  <advance width="978"/>
  <unicode hex="0BA4"/>
  <note>
uni0BA4
</note>
  <anchor x="414" y="0" name="bottom"/>
  <anchor x="697" y="584" name="imatra"/>
  <anchor x="479" y="-135" name="nukta"/>
  <anchor x="563" y="584" name="top"/>
  <anchor x="569" y="584" name="vedic"/>
  <outline>
    <contour>
      <point x="118" y="-308" type="curve"/>
      <point x="142" y="-195"/>
      <point x="194" y="-131"/>
      <point x="331" y="-131" type="curve" smooth="yes"/>
      <point x="515" y="-131" type="line" smooth="yes"/>
      <point x="704" y="-131"/>
      <point x="895" y="-50"/>
      <point x="895" y="140" type="curve" smooth="yes"/>
      <point x="895" y="295"/>
      <point x="782" y="348"/>
      <point x="631" y="348" type="curve" smooth="yes"/>
      <point x="613" y="348" type="line"/>
      <point x="647" y="508" type="line"/>
      <point x="801" y="508" type="line"/>
      <point x="817" y="584" type="line"/>
      <point x="230" y="584" type="line"/>
      <point x="172" y="310" type="line"/>
      <point x="255" y="310" type="line"/>
      <point x="297" y="508" type="line"/>
      <point x="432" y="508" type="line"/>
      <point x="398" y="348" type="line"/>
      <point x="262" y="348" type="line" smooth="yes"/>
      <point x="134" y="348"/>
      <point x="40" y="280"/>
      <point x="40" y="164" type="curve" smooth="yes"/>
      <point x="40" y="68"/>
      <point x="117" y="-4"/>
      <point x="283" y="-4" type="curve" smooth="yes"/>
      <point x="471" y="-4"/>
      <point x="551" y="83"/>
      <point x="586" y="227" type="curve" smooth="yes"/>
      <point x="597" y="272" type="line"/>
      <point x="606" y="272" type="line" smooth="yes"/>
      <point x="660" y="272"/>
      <point x="696" y="238"/>
      <point x="696" y="146" type="curve" smooth="yes"/>
      <point x="696" y="9"/>
      <point x="604" y="-65"/>
      <point x="433" y="-65" type="curve" smooth="yes"/>
      <point x="272" y="-65" type="line" smooth="yes"/>
      <point x="104" y="-65"/>
      <point x="-25" y="-97"/>
      <point x="-25" y="-210" type="curve" smooth="yes"/>
      <point x="-25" y="-274"/>
      <point x="32" y="-308"/>
    </contour>
    <contour>
      <point x="227" y="83" type="curve" smooth="yes"/>
      <point x="167" y="83"/>
      <point x="119" y="115"/>
      <point x="119" y="174" type="curve" smooth="yes"/>
      <point x="119" y="239"/>
      <point x="166" y="272"/>
      <point x="254" y="272" type="curve" smooth="yes"/>
      <point x="382" y="272" type="line"/>
      <point x="372" y="226" type="line" smooth="yes"/>
      <point x="350" y="126"/>
      <point x="311" y="83"/>
    </contour>
  </outline>
</glyph>
<glyph name="pa-tamil" format="2">
  <advance width="996"/>
  <unicode hex="0BAA"/>
  <note>
uni0BAA
</note>
  <anchor x="442" y="0" name="bottom"/>
  <anchor x="977" y="584" name="imatra"/>
  <anchor x="442" y="0" name="nukta"/>
  <anchor x="568" y="584" name="top"/>
  <anchor x="564" y="584" name="vedic"/>
  <outline>
    <contour>
      <point x="10" y="0" type="line"/>
      <point x="862" y="0" type="line"/>
      <point x="986" y="584" type="line"/>
      <point x="773" y="584" type="line"/>
      <point x="665" y="75" type="line"/>
      <point x="241" y="75" type="line"/>
      <point x="349" y="584" type="line"/>
      <point x="134" y="584" type="line"/>
    </contour>
  </outline>
</glyph>
<glyph name="ssa-tamil" format="2">
  <advance width="1716"/>
  <unicode hex="0BB7"/>
  <note>
uni0BB7
</note>
  <anchor x="803" y="0" name="bottom"/>
  <anchor x="654" y="0" name="nukta"/>
  <anchor x="957" y="584" name="top"/>
  <anchor x="927" y="584" name="vedic"/>
  <outline>
    <contour>
      <point x="278" y="-5" type="curve" smooth="yes"/>
      <point x="405" y="-5"/>
      <point x="514" y="67"/>
      <point x="514" y="202" type="curve" smooth="yes"/>
      <point x="514" y="293"/>
      <point x="453" y="354"/>
      <point x="349" y="354" type="curve" smooth="yes"/>
      <point x="216" y="354"/>
      <point x="127" y="234"/>
      <point x="112" y="123" type="curve"/>
      <point x="160" y="92" type="line"/>
      <point x="175" y="169"/>
      <point x="211" y="230"/>
      <point x="268" y="230" type="curve" smooth="yes"/>
      <point x="304" y="230"/>
      <point x="325" y="203"/>
      <point x="325" y="170" type="curve" smooth="yes"/>
      <point x="325" y="121"/>
      <point x="295" y="88"/>
      <point x="237" y="88" type="curve" smooth="yes"/>
      <point x="185" y="88"/>
      <point x="122" y="145"/>
      <point x="122" y="249" type="curve" smooth="yes"/>
      <point x="122" y="378"/>
      <point x="259" y="504"/>
      <point x="413" y="504" type="curve" smooth="yes"/>
      <point x="554" y="504"/>
      <point x="656" y="429"/>
      <point x="656" y="287" type="curve" smooth="yes"/>
      <point x="656" y="198"/>
      <point x="619" y="122"/>
      <point x="563" y="50" type="curve"/>
      <point x="577" y="0" type="line"/>
      <point x="1615" y="0" type="line"/>
      <point x="1689" y="347" type="line"/>
      <point x="1481" y="304" type="line"/>
      <point x="1432" y="75" type="line"/>
      <point x="723" y="75" type="line"/>
      <point x="802" y="132"/>
      <point x="869" y="205"/>
      <point x="869" y="322" type="curve" smooth="yes"/>
      <point x="869" y="500"/>
      <point x="691" y="589"/>
      <point x="479" y="589" type="curve" smooth="yes"/>
      <point x="221" y="589"/>
      <point x="41" y="431"/>
      <point x="41" y="237" type="curve" smooth="yes"/>
      <point x="41" y="97"/>
      <point x="141" y="-5"/>
    </contour>
    <contour>
      <point x="1021" y="-335" type="line"/>
      <point x="1220" y="-335" type="line"/>
      <point x="1369" y="365" type="line" smooth="yes"/>
      <point x="1398" y="500"/>
      <point x="1343" y="589"/>
      <point x="1208" y="589" type="curve" smooth="yes"/>
      <point x="1064" y="589"/>
      <point x="981" y="487"/>
      <point x="981" y="387" type="curve" smooth="yes"/>
      <point x="981" y="259"/>
      <point x="1082" y="192"/>
      <point x="1235" y="192" type="curve" smooth="yes"/>
      <point x="1397" y="192"/>
      <point x="1531" y="261"/>
      <point x="1688" y="342" type="curve"/>
      <point x="1690" y="352" type="line"/>
      <point x="1651" y="416" type="line"/>
      <point x="1499" y="330"/>
      <point x="1359" y="268"/>
      <point x="1242" y="268" type="curve" smooth="yes"/>
      <point x="1133" y="268"/>
      <point x="1062" y="306"/>
      <point x="1062" y="391" type="curve" smooth="yes"/>
      <point x="1062" y="432"/>
      <point x="1086" y="473"/>
      <point x="1127" y="473" type="curve" smooth="yes"/>
      <point x="1167" y="473"/>
      <point x="1185" y="439"/>
      <point x="1173" y="384" type="curve" smooth="yes"/>
    </contour>
  </outline>
</glyph>
<glyph name="eeMatra-tamil" format="2">
  <advance width="704"/>
  <unicode hex="0BC7"/>
  <note>
uni0BC7
</note>
  <outline>
    <contour>
      <point x="379" y="-5" type="curve" smooth="yes"/>
      <point x="516" y="-5"/>
      <point x="645" y="62"/>
      <point x="645" y="205" type="curve" smooth="yes"/>
      <point x="645" y="297"/>
      <point x="580" y="354"/>
      <point x="488" y="354" type="curve" smooth="yes"/>
      <point x="345" y="354"/>
      <point x="266" y="224"/>
      <point x="233" y="113" type="curve"/>
      <point x="279" y="82" type="line"/>
      <point x="305" y="160"/>
      <point x="341" y="230"/>
      <point x="400" y="230" type="curve" smooth="yes"/>
      <point x="432" y="230"/>
      <point x="455" y="207"/>
      <point x="455" y="172" type="curve" smooth="yes"/>
      <point x="455" y="119"/>
      <point x="414" y="88"/>
      <point x="359" y="88" type="curve" smooth="yes"/>
      <point x="254" y="88"/>
      <point x="162" y="195"/>
      <point x="162" y="367" type="curve" smooth="yes"/>
      <point x="162" y="556"/>
      <point x="314" y="820"/>
      <point x="498" y="820" type="curve" smooth="yes"/>
      <point x="546" y="820"/>
      <point x="577" y="796"/>
      <point x="577" y="750" type="curve" smooth="yes"/>
      <point x="577" y="696"/>
      <point x="540" y="678"/>
      <point x="509" y="678" type="curve" smooth="yes"/>
      <point x="450" y="678"/>
      <point x="437" y="756"/>
      <point x="440" y="826" type="curve"/>
      <point x="384" y="800" type="line"/>
      <point x="374" y="671"/>
      <point x="423" y="554"/>
      <point x="558" y="554" type="curve" smooth="yes"/>
      <point x="667" y="554"/>
      <point x="761" y="625"/>
      <point x="761" y="745" type="curve" smooth="yes"/>
      <point x="761" y="855"/>
      <point x="677" y="913"/>
      <point x="558" y="913" type="curve" smooth="yes"/>
      <point x="273" y="913"/>
      <point x="78" y="609"/>
      <point x="78" y="352" type="curve" smooth="yes"/>
      <point x="78" y="145"/>
      <point x="211" y="-5"/>
    </contour>
  </outline>
</glyph>
<glyph name="one-tamil" format="2">
  <advance width="979"/>
  <unicode hex="0BE7"/>
  <note>
uni0BE7
</note>
  <outline>
    <contour>
      <point x="283" y="-4" type="curve" smooth="yes"/>
      <point x="471" y="-4"/>
      <point x="551" y="83"/>
      <point x="586" y="227" type="curve" smooth="yes"/>
      <point x="597" y="272" type="line"/>
      <point x="640" y="272" type="line" smooth="yes"/>
      <point x="689" y="272"/>
      <point x="717" y="244"/>
      <point x="717" y="196" type="curve" smooth="yes"/>
      <point x="717" y="122"/>
      <point x="678" y="83"/>
      <point x="613" y="83" type="curve" smooth="yes"/>
      <point x="568" y="83"/>
      <point x="536" y="105"/>
      <point x="515" y="142" type="curve"/>
      <point x="454" y="92" type="line"/>
      <point x="487" y="34"/>
      <point x="542" y="-5"/>
      <point x="653" y="-5" type="curve" smooth="yes"/>
      <point x="794" y="-5"/>
      <point x="920" y="55"/>
      <point x="920" y="193" type="curve" smooth="yes"/>
      <point x="920" y="305"/>
      <point x="818" y="348"/>
      <point x="670" y="348" type="curve" smooth="yes"/>
      <point x="613" y="348" type="line"/>
      <point x="647" y="508" type="line"/>
      <point x="801" y="508" type="line"/>
      <point x="817" y="584" type="line"/>
      <point x="230" y="584" type="line"/>
      <point x="172" y="310" type="line"/>
      <point x="255" y="310" type="line"/>
      <point x="297" y="508" type="line"/>
      <point x="432" y="508" type="line"/>
      <point x="398" y="348" type="line"/>
      <point x="262" y="348" type="line" smooth="yes"/>
      <point x="134" y="348"/>
      <point x="40" y="280"/>
      <point x="40" y="164" type="curve" smooth="yes"/>
      <point x="40" y="68"/>
      <point x="117" y="-4"/>
    </contour>
    <contour>
      <point x="227" y="83" type="curve" smooth="yes"/>
      <point x="167" y="83"/>
      <point x="119" y="115"/>
      <point x="119" y="174" type="curve" smooth="yes"/>
      <point x="119" y="239"/>
      <point x="166" y="272"/>
      <point x="254" y="272" type="curve" smooth="yes"/>
      <point x="382" y="272" type="line"/>
      <point x="372" y="226" type="line" smooth="yes"/>
      <point x="350" y="126"/>
      <point x="311" y="83"/>
    </contour>
  </outline>
</glyph>
<glyph name="five-tamil" format="2">
  <advance width="1300"/>
  <unicode hex="0BEB"/>
  <note>
uni0BEB
</note>
  <outline>
    <contour>
      <point x="537" y="-336" type="curve" smooth="yes"/>
      <point x="854" y="-336"/>
      <point x="1134" y="-147"/>
      <point x="1134" y="175" type="curve" smooth="yes"/>
      <point x="1134" y="303"/>
      <point x="1053" y="363"/>
      <point x="954" y="363" type="curve" smooth="yes"/>
      <point x="828" y="363"/>
      <point x="750" y="254"/>
      <point x="725" y="154" type="curve" smooth="yes"/>
      <point x="722" y="142" type="line"/>
      <point x="755" y="142" type="line"/>
      <point x="758" y="154" type="line" smooth="yes"/>
      <point x="771" y="207"/>
      <point x="807" y="235"/>
      <point x="853" y="235" type="curve" smooth="yes"/>
      <point x="900" y="235"/>
      <point x="934" y="209"/>
      <point x="934" y="144" type="curve" smooth="yes"/>
      <point x="934" y="-95"/>
      <point x="775" y="-251"/>
      <point x="522" y="-251" type="curve" smooth="yes"/>
      <point x="277" y="-251"/>
      <point x="134" y="-83"/>
      <point x="134" y="180" type="curve" smooth="yes"/>
      <point x="134" y="482"/>
      <point x="360" y="718"/>
      <point x="717" y="718" type="curve" smooth="yes"/>
      <point x="948" y="718"/>
      <point x="1164" y="640"/>
      <point x="1177" y="392" type="curve"/>
      <point x="1263" y="392" type="line"/>
      <point x="1266" y="707"/>
      <point x="1054" y="875"/>
      <point x="731" y="875" type="curve" smooth="yes"/>
      <point x="307" y="875"/>
      <point x="41" y="544"/>
      <point x="41" y="172" type="curve" smooth="yes"/>
      <point x="41" y="-129"/>
      <point x="223" y="-336"/>
    </contour>
    <contour>
      <point x="286" y="0" type="line"/>
      <point x="368" y="0" type="line"/>
      <point x="477" y="509" type="line"/>
      <point x="619" y="509" type="line"/>
      <point x="510" y="0" type="line"/>
      <point x="726" y="0" type="line"/>
      <point x="834" y="509" type="line"/>
      <point x="977" y="509" type="line"/>
      <point x="993" y="584" type="line"/>
      <point x="410" y="584" type="line"/>
    </contour>
  </outline>
</glyph>
<glyph name="nine-tamil" format="2">
  <advance width="1390"/>
  <unicode hex="0BEF"/>
  <note>
uni0BEF
</note>
  <outline>
    <contour>
      <point x="1103" y="-20" type="line"/>
      <point x="1238" y="19"/>
      <point x="1346" y="97"/>
      <point x="1346" y="234" type="curve" smooth="yes"/>
      <point x="1346" y="387"/>
      <point x="1185" y="447"/>
      <point x="1016" y="447" type="curve" smooth="yes"/>
      <point x="817" y="447"/>
      <point x="645" y="336"/>
      <point x="645" y="158" type="curve" smooth="yes"/>
      <point x="645" y="74"/>
      <point x="702" y="-4"/>
      <point x="815" y="-4" type="curve" smooth="yes"/>
      <point x="937" y="-4"/>
      <point x="1033" y="67"/>
      <point x="1033" y="186" type="curve" smooth="yes"/>
      <point x="1033" y="306"/>
      <point x="935" y="348"/>
      <point x="787" y="348" type="curve" smooth="yes"/>
      <point x="613" y="348" type="line"/>
      <point x="647" y="508" type="line"/>
      <point x="801" y="508" type="line"/>
      <point x="817" y="584" type="line"/>
      <point x="230" y="584" type="line"/>
      <point x="172" y="310" type="line"/>
      <point x="255" y="310" type="line"/>
      <point x="297" y="508" type="line"/>
      <point x="432" y="508" type="line"/>
      <point x="398" y="348" type="line"/>
      <point x="262" y="348" type="line" smooth="yes"/>
      <point x="134" y="348"/>
      <point x="40" y="280"/>
      <point x="40" y="164" type="curve" smooth="yes"/>
      <point x="40" y="68"/>
      <point x="117" y="-4"/>
      <point x="283" y="-4" type="curve" smooth="yes"/>
      <point x="471" y="-4"/>
      <point x="551" y="83"/>
      <point x="586" y="227" type="curve" smooth="yes"/>
      <point x="597" y="272" type="line"/>
      <point x="758" y="272" type="line" smooth="yes"/>
      <point x="835" y="272"/>
      <point x="866" y="240"/>
      <point x="866" y="186" type="curve" smooth="yes"/>
      <point x="866" y="117"/>
      <point x="829" y="84"/>
      <point x="785" y="84" type="curve" smooth="yes"/>
      <point x="749" y="84"/>
      <point x="725" y="114"/>
      <point x="725" y="165" type="curve" smooth="yes"/>
      <point x="725" y="281"/>
      <point x="842" y="366"/>
      <point x="973" y="366" type="curve" smooth="yes"/>
      <point x="1066" y="366"/>
      <point x="1153" y="329"/>
      <point x="1153" y="221" type="curve" smooth="yes"/>
      <point x="1153" y="144"/>
      <point x="1123" y="90"/>
      <point x="1072" y="33" type="curve"/>
    </contour>
    <contour>
      <point x="227" y="83" type="curve" smooth="yes"/>
      <point x="167" y="83"/>
      <point x="119" y="115"/>
      <point x="119" y="174" type="curve" smooth="yes"/>
      <point x="119" y="239"/>
      <point x="166" y="272"/>
      <point x="254" y="272" type="curve" smooth="yes"/>
      <point x="382" y="272" type="line"/>
      <point x="372" y="226" type="line" smooth="yes"/>
      <point x="350" y="126"/>
      <point x="311" y="83"/>
    </contour>
  </outline>
</glyph>
<glyph name="year-tamil" format="2">
  <advance width="2542"/>
  <unicode hex="0BF5"/>
  <note>
uni0BF5
</note>
  <anchor x="840" y="0" name="bottom"/>
  <anchor x="1576" y="584" name="imatra"/>
  <anchor x="824" y="0" name="nukta"/>
  <anchor x="978" y="584" name="top"/>
  <anchor x="1045" y="584" name="vedic"/>
  <outline>
    <contour>
      <point x="904" y="-336" type="curve" smooth="yes"/>
      <point x="1415" y="-336"/>
      <point x="1857" y="-161"/>
      <point x="1857" y="180" type="curve" smooth="yes"/>
      <point x="1857" y="302"/>
      <point x="1793" y="363"/>
      <point x="1689" y="363" type="curve" smooth="yes"/>
      <point x="1567" y="363"/>
      <point x="1484" y="254"/>
      <point x="1459" y="154" type="curve" smooth="yes"/>
      <point x="1456" y="142" type="line"/>
      <point x="1495" y="142" type="line"/>
      <point x="1498" y="154" type="line" smooth="yes"/>
      <point x="1511" y="207"/>
      <point x="1541" y="235"/>
      <point x="1585" y="235" type="curve" smooth="yes"/>
      <point x="1630" y="235"/>
      <point x="1654" y="207"/>
      <point x="1654" y="147" type="curve" smooth="yes"/>
      <point x="1654" y="-112"/>
      <point x="1315" y="-251"/>
      <point x="902" y="-251" type="curve" smooth="yes"/>
      <point x="499" y="-251"/>
      <point x="149" y="-109"/>
      <point x="149" y="215" type="curve" smooth="yes"/>
      <point x="149" y="573"/>
      <point x="544" y="787"/>
      <point x="1193" y="787" type="curve" smooth="yes"/>
      <point x="1660" y="787"/>
      <point x="2047" y="636"/>
      <point x="1973" y="266" type="curve" smooth="yes"/>
      <point x="1963" y="216" type="line" smooth="yes"/>
      <point x="1936" y="82"/>
      <point x="2031" y="-5"/>
      <point x="2170" y="-5" type="curve" smooth="yes"/>
      <point x="2385" y="-5"/>
      <point x="2507" y="148"/>
      <point x="2507" y="353" type="curve" smooth="yes"/>
      <point x="2507" y="447"/>
      <point x="2480" y="521"/>
      <point x="2448" y="587" type="curve"/>
      <point x="2373" y="551" type="line"/>
      <point x="2401" y="490"/>
      <point x="2425" y="422"/>
      <point x="2425" y="348" type="curve" smooth="yes"/>
      <point x="2425" y="192"/>
      <point x="2332" y="88"/>
      <point x="2234" y="88" type="curve" smooth="yes"/>
      <point x="2173" y="88"/>
      <point x="2165" y="135"/>
      <point x="2182" y="212" type="curve" smooth="yes"/>
      <point x="2197" y="279" type="line" smooth="yes"/>
      <point x="2288" y="684"/>
      <point x="1777" y="871"/>
      <point x="1203" y="871" type="curve" smooth="yes"/>
      <point x="493" y="871"/>
      <point x="58" y="616"/>
      <point x="58" y="203" type="curve" smooth="yes"/>
      <point x="58" y="-150"/>
      <point x="440" y="-336"/>
    </contour>
    <component base="lla-tamil" xOffset="242"/>
  </outline>
</glyph>
<glyph name="iMatra-tamil.alt02" format="2">
  <advance width="235"/>
  <note>
uni0BBF
</note>
  <anchor x="-140" y="910" name="top"/>
  <outline>
    <contour>
      <point x="20" y="0" type="line"/>
      <point x="105" y="0" type="line"/>
      <point x="213" y="508" type="line" smooth="yes"/>
      <point x="262" y="737"/>
      <point x="128" y="910"/>
      <point x="-140" y="910" type="curve" smooth="yes"/>
      <point x="-345" y="910"/>
      <point x="-489" y="786"/>
      <point x="-489" y="635" type="curve" smooth="yes"/>
      <point x="-489" y="573"/>
      <point x="-463" y="527"/>
      <point x="-426" y="486" type="curve"/>
      <point x="-369" y="527" type="line"/>
      <point x="-385" y="551"/>
      <point x="-393" y="571"/>
      <point x="-393" y="606" type="curve" smooth="yes"/>
      <point x="-393" y="697"/>
      <point x="-300" y="756"/>
      <point x="-161" y="756" type="curve" smooth="yes"/>
      <point x="22" y="756"/>
      <point x="160" y="658"/>
      <point x="120" y="471" type="curve" smooth="yes"/>
    </contour>
  </outline>
</glyph>
<glyph name="iiMatra-tamil.alt02" format="2">
  <note>
uni0BC0
</note>
  <anchor x="-270" y="945" name="top"/>
  <outline>
    <contour>
      <point x="-456" y="509" type="curve"/>
      <point x="-415" y="554" type="line"/>
      <point x="-457" y="595"/>
      <point x="-472" y="641"/>
      <point x="-472" y="698" type="curve" smooth="yes"/>
      <point x="-472" y="789"/>
      <point x="-393" y="862"/>
      <point x="-288" y="862" type="curve" smooth="yes"/>
      <point x="-231" y="862"/>
      <point x="-195" y="831"/>
      <point x="-195" y="786" type="curve" smooth="yes"/>
      <point x="-195" y="741"/>
      <point x="-224" y="716"/>
      <point x="-270" y="716" type="curve" smooth="yes"/>
      <point x="-348" y="716"/>
      <point x="-337" y="815"/>
      <point x="-285" y="888" type="curve"/>
      <point x="-340" y="893" type="line"/>
      <point x="-452" y="767"/>
      <point x="-403" y="616"/>
      <point x="-231" y="616" type="curve" smooth="yes"/>
      <point x="-134" y="616"/>
      <point x="-42" y="670"/>
      <point x="-42" y="778" type="curve" smooth="yes"/>
      <point x="-42" y="889"/>
      <point x="-142" y="945"/>
      <point x="-269" y="945" type="curve" smooth="yes"/>
      <point x="-429" y="945"/>
      <point x="-557" y="838"/>
      <point x="-557" y="699" type="curve" smooth="yes"/>
      <point x="-557" y="617"/>
      <point x="-516" y="554"/>
    </contour>
  </outline>
</glyph>
<glyph name="ttii-tamil" format="2">
  <advance width="1042"/>
  <note>
g111
</note>
  <anchor x="533" y="0" name="bottom"/>
  <anchor x="533" y="-3" name="nukta"/>
  <anchor x="775" y="584" name="top"/>
  <anchor x="614" y="584" name="vedic"/>
  <outline>
    <contour>
      <point x="10" y="0" type="line"/>
      <point x="971" y="0" type="line"/>
      <point x="987" y="75" type="line"/>
      <point x="239" y="75" type="line"/>
      <point x="348" y="584" type="line"/>
      <point x="134" y="584" type="line"/>
    </contour>
    <contour>
      <point x="688" y="19" type="curve" smooth="yes"/>
      <point x="722" y="19" type="line"/>
      <point x="735" y="75" type="line"/>
      <point x="712" y="75" type="line" smooth="yes"/>
      <point x="579" y="75"/>
      <point x="520" y="171"/>
      <point x="520" y="268" type="curve" smooth="yes"/>
      <point x="520" y="410"/>
      <point x="617" y="489"/>
      <point x="722" y="489" type="curve" smooth="yes"/>
      <point x="770" y="489"/>
      <point x="803" y="461"/>
      <point x="803" y="415" type="curve" smooth="yes"/>
      <point x="803" y="366"/>
      <point x="771" y="332"/>
      <point x="720" y="332" type="curve" smooth="yes"/>
      <point x="647" y="332"/>
      <point x="643" y="422"/>
      <point x="700" y="501" type="curve"/>
      <point x="626" y="481" type="line"/>
      <point x="533" y="337"/>
      <point x="609" y="208"/>
      <point x="764" y="208" type="curve" smooth="yes"/>
      <point x="875" y="208"/>
      <point x="980" y="272"/>
      <point x="980" y="399" type="curve" smooth="yes"/>
      <point x="980" y="525"/>
      <point x="873" y="590"/>
      <point x="753" y="590" type="curve" smooth="yes"/>
      <point x="575" y="590"/>
      <point x="436" y="451"/>
      <point x="436" y="279" type="curve" smooth="yes"/>
      <point x="436" y="136"/>
      <point x="514" y="19"/>
    </contour>
  </outline>
</glyph>
<glyph name="vuu-tamil" format="2">
  <advance width="1574"/>
  <note>
g144
</note>
  <anchor x="667" y="0" name="bottom"/>
  <anchor x="621" y="-474" name="nukta"/>
  <anchor x="712" y="584" name="top"/>
  <anchor x="866" y="584" name="vedic"/>
  <anchor x="1057" y="584" name="imatra"/>
  <outline>
    <contour>
      <point x="621" y="-474" type="curve" smooth="yes"/>
      <point x="1005" y="-474"/>
      <point x="1492" y="-331"/>
      <point x="1492" y="2" type="curve" smooth="yes"/>
      <point x="1492" y="111"/>
      <point x="1421" y="166"/>
      <point x="1326" y="166" type="curve" smooth="yes"/>
      <point x="1210" y="166"/>
      <point x="1118" y="83"/>
      <point x="1070" y="-75" type="curve"/>
      <point x="1112" y="-82" type="line"/>
      <point x="1126" y="-11"/>
      <point x="1169" y="23"/>
      <point x="1212" y="23" type="curve" smooth="yes"/>
      <point x="1253" y="23"/>
      <point x="1275" y="-3"/>
      <point x="1275" y="-48" type="curve" smooth="yes"/>
      <point x="1275" y="-295"/>
      <point x="874" y="-394"/>
      <point x="604" y="-394" type="curve" smooth="yes"/>
      <point x="380" y="-394"/>
      <point x="128" y="-344"/>
      <point x="128" y="-236" type="curve" smooth="yes"/>
      <point x="128" y="-110"/>
      <point x="389" y="-120"/>
      <point x="601" y="-199" type="curve"/>
      <point x="631" y="-128" type="line"/>
      <point x="364" y="-28"/>
      <point x="44" y="-41"/>
      <point x="44" y="-246" type="curve" smooth="yes"/>
      <point x="44" y="-402"/>
      <point x="322" y="-474"/>
    </contour>
    <contour>
      <point x="873" y="-208" type="line"/>
      <point x="1085" y="-208" type="line"/>
      <point x="1173" y="209" type="line"/>
      <point x="962" y="209" type="line"/>
    </contour>
    <component base="va-tamil"/>
  </outline>
</glyph>
